<?xml version="1.0" encoding="utf-8"?>
<!-- Generator: Adobe Illustrator 18.1.1, SVG Export Plug-In . SVG Version: 6.00 Build 0)  -->
<svg version="1.1" id="artwork" xmlns="http://www.w3.org/2000/svg" xmlns:xlink="http://www.w3.org/1999/xlink" x="0px" y="0px"
	 viewBox="0 0 907.6 521.4" width="907.6px" height="521.4px" enable-background="new 0 0 907.6 521.4" xml:space="preserve">
<polygon points="297.1,205.1 306.2,220.9 297.1,236.7 278.8,236.7 269.7,220.9 278.8,205.1 "/>
<polygon points="350.5,205.1 359.7,220.9 350.5,236.7 332.3,236.7 323.1,220.9 332.3,205.1 "/>
<polygon points="405.7,205.1 414.8,220.9 405.7,236.7 387.4,236.7 378.3,220.9 387.4,205.1 "/>
<polygon points="377.9,220.9 387,236.7 377.9,252.5 359.6,252.5 350.5,236.7 359.6,220.9 "/>
<polygon points="432.7,220.9 441.9,236.7 432.7,252.5 414.5,252.5 405.3,236.7 414.5,220.9 "/>
<polygon points="432.7,189.8 441.9,205.6 432.7,221.5 414.5,221.5 405.3,205.6 414.5,189.8 "/>
<polygon points="377.9,252.5 387,268.3 377.9,284.2 359.6,284.2 350.5,268.3 359.6,252.5 "/>
<polygon points="432.7,252.5 441.9,268.3 432.7,284.2 414.5,284.2 405.3,268.3 414.5,252.5 "/>
<polygon points="377.9,474 387,489.8 377.9,505.6 359.6,505.6 350.5,489.8 359.6,474 "/>
<polygon points="405.7,489.8 414.8,505.6 405.7,521.4 387.4,521.4 378.3,505.6 387.4,489.8 "/>
<polygon points="460.7,205.6 469.8,221.5 460.7,237.3 442.4,237.3 433.3,221.5 442.4,205.6 "/>
<polygon points="488,189.8 497.1,205.6 488,221.5 469.7,221.5 460.6,205.6 469.7,189.8 "/>
<polygon points="488,220.9 497.1,236.7 488,252.5 469.7,252.5 460.6,236.7 469.7,220.9 "/>
<polygon points="377.9,284.2 387,300 377.9,315.8 359.6,315.8 350.5,300 359.6,284.2 "/>
<polygon points="432.7,284.2 441.9,300 432.7,315.8 414.5,315.8 405.3,300 414.5,284.2 "/>
<polygon points="297.1,236.7 306.2,252.5 297.1,268.3 278.8,268.3 269.7,252.5 278.8,236.7 "/>
<polygon points="350.5,236.7 359.7,252.5 350.5,268.3 332.3,268.3 323.1,252.5 332.3,236.7 "/>
<polygon points="405.7,236.7 414.8,252.5 405.7,268.3 387.4,268.3 378.3,252.5 387.4,236.7 "/>
<polygon points="297.1,268.3 306.2,284.2 297.1,300 278.8,300 269.7,284.2 278.8,268.3 "/>
<polygon points="350.5,268.3 359.7,284.2 350.5,300 332.3,300 323.1,284.2 332.3,268.3 "/>
<polygon points="405.7,268.3 414.8,284.2 405.7,300 387.4,300 378.3,284.2 387.4,268.3 "/>
<polygon points="460.7,268.3 469.8,284.2 460.7,300 442.4,300 433.3,284.2 442.4,268.3 "/>
<polygon points="297.1,300 306.2,315.8 297.1,331.6 278.8,331.6 269.7,315.8 278.8,300 "/>
<polygon points="323.8,284.2 332.9,300 323.8,315.8 305.5,315.8 296.4,300 305.5,284.2 "/>
<polygon points="323.8,252.5 332.9,268.3 323.8,284.2 305.5,284.2 296.4,268.3 305.5,252.5 "/>
<polygon points="323.8,315.8 332.9,331.6 323.8,347.4 305.5,347.4 296.4,331.6 305.5,315.8 "/>
<polygon points="377.9,315.8 387,331.6 377.9,347.4 359.6,347.4 350.5,331.6 359.6,315.8 "/>
<polygon points="432.7,315.8 441.9,331.6 432.7,347.4 414.5,347.4 405.3,331.6 414.5,315.8 "/>
<polygon points="488,315.8 497.1,331.6 488,347.4 469.7,347.4 460.6,331.6 469.7,315.8 "/>
<polygon points="432.7,347.4 441.9,363.2 432.7,379.1 414.5,379.1 405.3,363.2 414.5,347.4 "/>
<polygon points="543.9,31 553,46.8 543.9,62.7 525.6,62.7 516.5,46.8 525.6,31 "/>
<polygon points="432.7,379.1 441.9,394.9 432.7,410.7 414.5,410.7 405.3,394.9 414.5,379.1 "/>
<polygon points="377.9,347.4 387,363.2 377.9,379.1 359.6,379.1 350.5,363.2 359.6,347.4 "/>
<polygon points="377.9,379.1 387,394.9 377.9,410.7 359.6,410.7 350.5,394.9 359.6,379.1 "/>
<polygon points="350.5,300 359.7,315.8 350.5,331.6 332.3,331.6 323.1,315.8 332.3,300 "/>
<polygon points="405.7,300 414.8,315.8 405.7,331.6 387.4,331.6 378.3,315.8 387.4,300 "/>
<polygon points="460.7,300 469.8,315.8 460.7,331.6 442.4,331.6 433.3,315.8 442.4,300 "/>
<polygon points="405.7,331.6 414.8,347.4 405.7,363.2 387.4,363.2 378.3,347.4 387.4,331.6 "/>
<polygon points="405.7,363.2 414.8,379.1 405.7,394.9 387.4,394.9 378.3,379.1 387.4,363.2 "/>
<polygon points="460.7,363.2 469.8,379.1 460.7,394.9 442.4,394.9 433.3,379.1 442.4,363.2 "/>
<polygon points="432.7,410.7 441.9,426.5 432.7,442.3 414.5,442.3 405.3,426.5 414.5,410.7 "/>
<polygon points="350.5,363.6 359.7,379.4 350.5,395.2 332.3,395.2 323.1,379.4 332.3,363.6 "/>
<polygon points="432.7,442.3 441.9,458.2 432.7,474 414.5,474 405.3,458.2 414.5,442.3 "/>
<polygon points="377.9,191.6 387,207.4 377.9,223.2 359.6,223.2 350.5,207.4 359.6,191.6 "/>
<polygon points="543.9,410.7 553,426.5 543.9,442.3 525.6,442.3 516.5,426.5 525.6,410.7 "/>
<polygon points="488,379.1 497.1,394.9 488,410.7 469.7,410.7 460.6,394.9 469.7,379.1 "/>
<polygon points="377.9,410.7 387,426.5 377.9,442.3 359.6,442.3 350.5,426.5 359.6,410.7 "/>
<polygon points="405.7,394.9 414.8,410.7 405.7,426.5 387.4,426.5 378.3,410.7 387.4,394.9 "/>
<polygon points="405.7,426.5 414.8,442.3 405.7,458.2 387.4,458.2 378.3,442.3 387.4,426.5 "/>
<polygon points="460.7,394.9 469.8,410.7 460.7,426.5 442.4,426.5 433.3,410.7 442.4,394.9 "/>
<polygon points="460.7,426.5 469.8,442.3 460.7,458.2 442.4,458.2 433.3,442.3 442.4,426.5 "/>
<polygon points="350.5,332.7 359.7,348.5 350.5,364.3 332.3,364.3 323.1,348.5 332.3,332.7 "/>
<polygon points="432.7,474 441.9,489.8 432.7,505.6 414.5,505.6 405.3,489.8 414.5,474 "/>
<polygon points="405.7,458.2 414.8,474 405.7,489.8 387.4,489.8 378.3,474 387.4,458.2 "/>
<polygon points="377.9,442.3 387,458.2 377.9,474 359.6,474 350.5,458.2 359.6,442.3 "/>
<polygon points="488,284.2 497.1,300 488,315.8 469.7,315.8 460.6,300 469.7,284.2 "/>
<polygon points="460.7,331.6 469.8,347.4 460.7,363.2 442.4,363.2 433.3,347.4 442.4,331.6 "/>
<polygon points="270.6,252.5 279.7,268.3 270.6,284.2 252.3,284.2 243.2,268.3 252.3,252.5 "/>
<polygon points="323.8,189.2 332.9,205.1 323.8,220.9 305.5,220.9 296.4,205.1 305.5,189.2 "/>
<polygon points="323.8,220.9 332.9,236.7 323.8,252.5 305.5,252.5 296.4,236.7 305.5,220.9 "/>
<polygon points="55.1,77.3 64.3,93.1 55.1,108.9 36.9,108.9 27.7,93.1 36.9,77.3 "/>
<polygon points="108.5,77.3 117.7,93.1 108.5,108.9 90.3,108.9 81.1,93.1 90.3,77.3 "/>
<polygon points="27.4,61.4 36.5,77.3 27.4,93.1 9.1,93.1 0,77.3 9.1,61.4 "/>
<polygon points="55.1,108.9 64.3,124.7 55.1,140.5 36.9,140.5 27.7,124.7 36.9,108.9 "/>
<polygon points="82.3,124.7 91.5,140.5 82.3,156.4 64.1,156.4 54.9,140.5 64.1,124.7 "/>
<polygon points="55.1,140.5 64.3,156.4 55.1,172.2 36.9,172.2 27.7,156.4 36.9,140.5 "/>
<polygon points="82.3,156.4 91.5,172.2 82.3,188 64.1,188 54.9,172.2 64.1,156.4 "/>
<polygon points="82.3,188 91.5,203.8 82.3,219.6 64.1,219.6 54.9,203.8 64.1,188 "/>
<polygon points="108.5,203.8 117.7,219.6 108.5,235.5 90.3,235.5 81.1,219.6 90.3,203.8 "/>
<polygon points="108.5,235.5 117.7,251.3 108.5,267.1 90.3,267.1 81.1,251.3 90.3,235.5 "/>
<polygon points="108.5,267.1 117.7,282.9 108.5,298.7 90.3,298.7 81.1,282.9 90.3,267.1 "/>
<polygon points="163,203.8 172.1,219.6 163,235.5 144.7,235.5 135.6,219.6 144.7,203.8 "/>
<polygon points="163,235.5 172.1,251.3 163,267.1 144.7,267.1 135.6,251.3 144.7,235.5 "/>
<polygon points="135.9,190.1 145,205.9 135.9,221.7 117.6,221.7 108.5,205.9 117.6,190.1 "/>
<polygon points="135.9,93.1 145,108.9 135.9,124.7 117.6,124.7 108.5,108.9 117.6,93.1 "/>
<polygon points="135.9,219.6 145,235.5 135.9,251.3 117.6,251.3 108.5,235.5 117.6,219.6 "/>
<polygon points="189.4,219.6 198.5,235.5 189.4,251.3 171.1,251.3 162,235.5 171.1,219.6 "/>
<polygon points="135.9,251.3 145,267.1 135.9,282.9 117.6,282.9 108.5,267.1 117.6,251.3 "/>
<polygon points="163,267.1 172.1,282.9 163,298.7 144.7,298.7 135.6,282.9 144.7,267.1 "/>
<polygon points="135.9,314.5 145,330.4 135.9,346.2 117.6,346.2 108.5,330.4 117.6,314.5 "/>
<polygon points="189.4,251.3 198.5,267.1 189.4,282.9 171.1,282.9 162,267.1 171.1,251.3 "/>
<polygon points="135.9,282.9 145,298.7 135.9,314.5 117.6,314.5 108.5,298.7 117.6,282.9 "/>
<polygon points="108.5,140.5 117.7,156.4 108.5,172.2 90.3,172.2 81.1,156.4 90.3,140.5 "/>
<polygon points="624.8,271.2 634,287.1 624.8,302.9 606.6,302.9 597.4,287.1 606.6,271.2 "/>
<polygon points="732.8,254.5 741.9,270.3 732.8,286.1 714.5,286.1 705.4,270.3 714.5,254.5 "/>
<polygon points="706.4,240.7 715.5,256.6 706.4,272.4 688.1,272.4 679,256.6 688.1,240.7 "/>
<polygon points="597.4,287.1 606.5,302.9 597.4,318.7 579.1,318.7 570,302.9 579.1,287.1 "/>
<polygon points="652.6,287.1 661.7,302.9 652.6,318.7 634.3,318.7 625.2,302.9 634.3,287.1 "/>
<polygon points="652.6,256.6 661.7,272.4 652.6,288.2 634.3,288.2 625.2,272.4 634.3,256.6 "/>
<polygon points="708.8,348.3 717.9,364.1 708.8,379.9 690.5,379.9 681.4,364.1 690.5,348.3 "/>
<polygon points="624.8,302.9 634,318.7 624.8,334.5 606.6,334.5 597.4,318.7 606.6,302.9 "/>
<polygon points="783.2,287.1 792.3,302.9 783.2,318.7 764.9,318.7 755.8,302.9 764.9,287.1 "/>
<polygon points="652.6,318.7 661.7,334.5 652.6,350.3 634.3,350.3 625.2,334.5 634.3,318.7 "/>
<polygon points="652.6,349.4 661.7,365.2 652.6,381.1 634.3,381.1 625.2,365.2 634.3,349.4 "/>
<polygon points="624.8,239.6 634,255.4 624.8,271.2 606.6,271.2 597.4,255.4 606.6,239.6 "/>
<polygon points="736.4,174 745.6,189.8 736.4,205.6 718.2,205.6 709,189.8 718.2,174 "/>
<polygon points="736.4,142.4 745.6,158.2 736.4,174 718.2,174 709,158.2 718.2,142.4 "/>
<polygon points="708.2,189.8 717.3,205.6 708.2,221.5 689.9,221.5 680.8,205.6 689.9,189.8 "/>
<polygon points="708.2,158.2 717.3,174 708.2,189.8 689.9,189.8 680.8,174 689.9,158.2 "/>
<polygon points="708.2,126.6 717.3,142.4 708.2,158.2 689.9,158.2 680.8,142.4 689.9,126.6 "/>
<polygon points="763.1,126.6 772.2,142.4 763.1,158.2 744.8,158.2 735.7,142.4 744.8,126.6 "/>
<polygon points="736.4,110.7 745.6,126.6 736.4,142.4 718.2,142.4 709,126.6 718.2,110.7 "/>
<polygon points="708.2,94.9 717.3,110.7 708.2,126.6 689.9,126.6 680.8,110.7 689.9,94.9 "/>
<polygon points="736.4,79.1 745.6,94.9 736.4,110.7 718.2,110.7 709,94.9 718.2,79.1 "/>
<polygon points="736.4,49.9 745.6,65.7 736.4,81.5 718.2,81.5 709,65.7 718.2,49.9 "/>
<polygon points="871.9,126.6 881,142.4 871.9,158.2 853.6,158.2 844.5,142.4 853.6,126.6 "/>
<polygon points="898.4,142.4 907.6,158.2 898.4,174 880.2,174 871,158.2 880.2,142.4 "/>
<polygon points="680.2,142.4 689.3,158.2 680.2,174 661.9,174 652.8,158.2 661.9,142.4 "/>
<polygon points="680.2,173.9 689.3,189.7 680.2,205.5 661.9,205.5 652.8,189.7 661.9,173.9 "/>
<polygon points="652.6,126.6 661.7,142.4 652.6,158.2 634.3,158.2 625.2,142.4 634.3,126.6 "/>
<polygon points="652.6,158.2 661.7,174 652.6,189.8 634.3,189.8 625.2,174 634.3,158.2 "/>
<polygon points="624.8,142.4 634,158.2 624.8,174 606.6,174 597.4,158.2 606.6,142.4 "/>
<polygon points="597.4,126.6 606.5,142.4 597.4,158.2 579.1,158.2 570,142.4 579.1,126.6 "/>
<polygon points="377.9,126.6 387,142.4 377.9,158.2 359.6,158.2 350.5,142.4 359.6,126.6 "/>
<polygon points="432.7,126.6 441.9,142.4 432.7,158.2 414.5,158.2 405.3,142.4 414.5,126.6 "/>
<polygon points="432.7,158.2 441.9,174 432.7,189.8 414.5,189.8 405.3,174 414.5,158.2 "/>
<polygon points="405.7,110.7 414.8,126.6 405.7,142.4 387.4,142.4 378.3,126.6 387.4,110.7 "/>
<polygon points="432.7,94.9 441.9,110.7 432.7,126.6 414.5,126.6 405.3,110.7 414.5,94.9 "/>
<polygon points="405.7,79.1 414.8,94.9 405.7,110.7 387.4,110.7 378.3,94.9 387.4,79.1 "/>
<polygon points="432.7,63.3 441.9,79.1 432.7,94.9 414.5,94.9 405.3,79.1 414.5,63.3 "/>
<polygon points="488,126.6 497.1,142.4 488,158.2 469.7,158.2 460.6,142.4 469.7,126.6 "/>
<polygon points="488,158.2 497.1,174 488,189.8 469.7,189.8 460.6,174 469.7,158.2 "/>
<polygon points="488,94.9 497.1,110.7 488,126.6 469.7,126.6 460.6,110.7 469.7,94.9 "/>
<polygon points="488,63.3 497.1,79.1 488,94.9 469.7,94.9 460.6,79.1 469.7,63.3 "/>
<polygon points="488,31.6 497.1,47.5 488,63.3 469.7,63.3 460.6,47.5 469.7,31.6 "/>
<polygon points="405.7,142.4 414.8,158.2 405.7,174 387.4,174 378.3,158.2 387.4,142.4 "/>
<polygon points="460.7,110.7 469.8,126.6 460.7,142.4 442.4,142.4 433.3,126.6 442.4,110.7 "/>
<polygon points="460.7,79.1 469.8,94.9 460.7,110.7 442.4,110.7 433.3,94.9 442.4,79.1 "/>
<polygon points="460.7,47.5 469.8,63.3 460.7,79.1 442.4,79.1 433.3,63.3 442.4,47.5 "/>
<polygon points="516.2,110.7 525.4,126.6 516.2,142.4 498,142.4 488.9,126.6 498,110.7 "/>
<polygon points="516.2,142.4 525.4,158.2 516.2,174 498,174 488.9,158.2 498,142.4 "/>
<polygon points="543.9,158.2 553,174 543.9,189.8 525.6,189.8 516.5,174 525.6,158.2 "/>
<polygon points="543.9,126.6 553,142.4 543.9,158.2 525.6,158.2 516.5,142.4 525.6,126.6 "/>
<polygon points="543.9,94.9 553,110.7 543.9,126.6 525.6,126.6 516.5,110.7 525.6,94.9 "/>
<polygon points="543.9,63.3 553,79.1 543.9,94.9 525.6,94.9 516.5,79.1 525.6,63.3 "/>
<polygon points="570.8,110.7 580,126.6 570.8,142.4 552.6,142.4 543.4,126.6 552.6,110.7 "/>
<polygon points="570.8,79.1 580,94.9 570.8,110.7 552.6,110.7 543.4,94.9 552.6,79.1 "/>
<polygon points="570.8,46.8 580,62.7 570.8,78.5 552.6,78.5 543.4,62.7 552.6,46.8 "/>
<polygon points="597.4,63.3 606.5,79.1 597.4,94.9 579.1,94.9 570,79.1 579.1,63.3 "/>
<polygon points="597.4,31.6 606.5,47.5 597.4,63.3 579.1,63.3 570,47.5 579.1,31.6 "/>
<polygon points="597.4,0 606.5,15.8 597.4,31.6 579.1,31.6 570,15.8 579.1,0 "/>
<polygon points="570.8,142.4 580,158.2 570.8,174 552.6,174 543.4,158.2 552.6,142.4 "/>
<polygon points="570.8,174 580,189.8 570.8,205.6 552.6,205.6 543.4,189.8 552.6,174 "/>
<polygon points="543.9,189.8 553,205.6 543.9,221.5 525.6,221.5 516.5,205.6 525.6,189.8 "/>
<polygon points="570.8,205.6 580,221.5 570.8,237.3 552.6,237.3 543.4,221.5 552.6,205.6 "/>
<polygon points="516.2,205.6 525.4,221.5 516.2,237.3 498,237.3 488.9,221.5 498,205.6 "/>
<polygon points="516.2,173.9 525.4,189.7 516.2,205.5 498,205.5 488.9,189.7 498,173.9 "/>
<polygon points="543.9,221.5 553,237.3 543.9,253.1 525.6,253.1 516.5,237.3 525.6,221.5 "/>
<polygon points="543.9,252.5 553,268.3 543.9,284.2 525.6,284.2 516.5,268.3 525.6,252.5 "/>
<polygon points="597.4,158.2 606.5,174 597.4,189.8 579.1,189.8 570,174 579.1,158.2 "/>
<polygon points="516.2,79.1 525.4,94.9 516.2,110.7 498,110.7 488.9,94.9 498,79.1 "/>
<polygon points="516.2,47.5 525.4,63.3 516.2,79.1 498,79.1 488.9,63.3 498,47.5 "/>
<polygon points="460.7,142.4 469.8,158.2 460.7,174 442.4,174 433.3,158.2 442.4,142.4 "/>
<polygon points="460.7,174 469.8,189.8 460.7,205.6 442.4,205.6 433.3,189.8 442.4,174 "/>
<polygon points="405.7,174 414.8,189.8 405.7,205.6 387.4,205.6 378.3,189.8 387.4,174 "/>
<polygon points="377.9,94.9 387,110.7 377.9,126.6 359.6,126.6 350.5,110.7 359.6,94.9 "/>
<polygon points="377.9,63.3 387,79.1 377.9,94.9 359.6,94.9 350.5,79.1 359.6,63.3 "/>
<polygon points="377.9,31.6 387,47.5 377.9,63.3 359.6,63.3 350.5,47.5 359.6,31.6 "/>
<polygon points="405.7,15.8 414.8,31.6 405.7,47.5 387.4,47.5 378.3,31.6 387.4,15.8 "/>
<polygon points="377.9,0 387,15.8 377.9,31.6 359.6,31.6 350.5,15.8 359.6,0 "/>
<polygon points="350.5,15.8 359.7,31.6 350.5,47.5 332.3,47.5 323.1,31.6 332.3,15.8 "/>
<polygon points="297.1,15.8 306.2,31.6 297.1,47.5 278.8,47.5 269.7,31.6 278.8,15.8 "/>
<polygon points="350.5,79.1 359.7,94.9 350.5,110.7 332.3,110.7 323.1,94.9 332.3,79.1 "/>
<polygon points="323.8,63.3 332.9,79.1 323.8,94.9 305.5,94.9 296.4,79.1 305.5,63.3 "/>
<polygon points="297.1,79.1 306.2,94.9 297.1,110.7 278.8,110.7 269.7,94.9 278.8,79.1 "/>
<polygon points="350.5,142.4 359.7,158.2 350.5,174 332.3,174 323.1,158.2 332.3,142.4 "/>
<polygon points="624.8,110.7 634,126.6 624.8,142.4 606.6,142.4 597.4,126.6 606.6,110.7 "/>
<polygon points="624.8,79.1 634,94.9 624.8,110.7 606.6,110.7 597.4,94.9 606.6,79.1 "/>
<polygon points="624.8,47.5 634,63.3 624.8,79.1 606.6,79.1 597.4,63.3 606.6,47.5 "/>
<polygon points="597.4,94.9 606.5,110.7 597.4,126.6 579.1,126.6 570,110.7 579.1,94.9 "/>
<polygon points="624.8,174 634,189.8 624.8,205.6 606.6,205.6 597.4,189.8 606.6,174 "/>
<polygon points="624.8,207.4 634,223.2 624.8,239 606.6,239 597.4,223.2 606.6,207.4 "/>
<polygon points="652.6,94.9 661.7,110.7 652.6,126.6 634.3,126.6 625.2,110.7 634.3,94.9 "/>
<polygon points="652.6,63.3 661.7,79.1 652.6,94.9 634.3,94.9 625.2,79.1 634.3,63.3 "/>
<polygon points="680.2,110.7 689.3,126.6 680.2,142.4 661.9,142.4 652.8,126.6 661.9,110.7 "/>
<polygon points="708.2,63.9 717.3,79.7 708.2,95.5 689.9,95.5 680.8,79.7 689.9,63.9 "/>
<polygon points="790.2,174 799.4,189.8 790.2,205.6 772,205.6 762.8,189.8 772,174 "/>
<polygon points="790.2,142.4 799.4,158.2 790.2,174 772,174 762.8,158.2 772,142.4 "/>
<polygon points="763.1,158.2 772.2,174 763.1,189.8 744.8,189.8 735.7,174 744.8,158.2 "/>
<polygon points="790.2,110.7 799.4,126.6 790.2,142.4 772,142.4 762.8,126.6 772,110.7 "/>
<polygon points="763.1,94.9 772.2,110.7 763.1,126.6 744.8,126.6 735.7,110.7 744.8,94.9 "/>
<polygon points="790.2,79.1 799.4,94.9 790.2,110.7 772,110.7 762.8,94.9 772,79.1 "/>
<polygon points="790.2,48.7 799.4,64.5 790.2,80.3 772,80.3 762.8,64.5 772,48.7 "/>
<polygon points="763.1,65.7 772.2,81.5 763.1,97.3 744.8,97.3 735.7,81.5 744.8,65.7 "/>
<polygon points="763.1,34.1 772.2,49.9 763.1,65.7 744.8,65.7 735.7,49.9 744.8,34.1 "/>
<polygon points="816.9,126.6 826,142.4 816.9,158.2 798.6,158.2 789.5,142.4 798.6,126.6 "/>
<polygon points="844.1,110.7 853.2,126.6 844.1,142.4 825.8,142.4 816.7,126.6 825.8,110.7 "/>
<polygon points="844.1,142.4 853.2,158.2 844.1,174 825.8,174 816.7,158.2 825.8,142.4 "/>
<polygon points="816.9,94.9 826,110.7 816.9,126.6 798.6,126.6 789.5,110.7 798.6,94.9 "/>
<polygon points="844.1,79.1 853.2,94.9 844.1,110.7 825.8,110.7 816.7,94.9 825.8,79.1 "/>
<polygon points="844.1,48.7 853.2,64.5 844.1,80.3 825.8,80.3 816.7,64.5 825.8,48.7 "/>
<polygon points="844.1,17.6 853.2,33.5 844.1,49.3 825.8,49.3 816.7,33.5 825.8,17.6 "/>
<polygon points="816.9,63.9 826,79.7 816.9,95.5 798.6,95.5 789.5,79.7 798.6,63.9 "/>
<polygon points="816.9,32.2 826,48.1 816.9,63.9 798.6,63.9 789.5,48.1 798.6,32.2 "/>
<polygon points="871.9,63.9 881,79.7 871.9,95.5 853.6,95.5 844.5,79.7 853.6,63.9 "/>
<polygon points="708.2,32.2 717.3,48.1 708.2,63.9 689.9,63.9 680.8,48.1 689.9,32.2 "/>
<polygon points="680.2,79.7 689.3,95.5 680.2,111.3 661.9,111.3 652.8,95.5 661.9,79.7 "/>
<polygon points="680.2,48.1 689.3,63.9 680.2,79.7 661.9,79.7 652.8,63.9 661.9,48.1 "/>
<polygon points="652.6,31 661.7,46.8 652.6,62.7 634.3,62.7 625.2,46.8 634.3,31 "/>
<polygon points="680.2,15.8 689.3,31.6 680.2,47.4 661.9,47.4 652.8,31.6 661.9,15.8 "/>
</svg>
